<svg width="283" height="50" viewBox="0 0 283 50" fill="none" xmlns="http://www.w3.org/2000/svg">
<path d="M158.318 14.1835V22.1368H157.354V14.4168L157.75 14.4274L153.693 22.1368H152.623L148.566 14.438L148.962 14.4274V22.1368H147.999V14.1835H149.519L153.479 21.7975H152.848L156.798 14.1835H158.318Z" fill="#E3C5B6" style="fill:#E3C5B6;fill:color(display-p3 0.8902 0.7725 0.7137);fill-opacity:1;"/>
<path d="M163.238 22.2747C162.531 22.2747 161.907 22.1439 161.365 21.8823C160.829 21.6208 160.412 21.2531 160.112 20.7795C159.812 20.3058 159.663 19.7615 159.663 19.1464C159.663 18.5243 159.812 17.9799 160.112 17.5133C160.412 17.0467 160.829 16.6826 161.365 16.4211C161.907 16.1595 162.531 16.0287 163.238 16.0287C163.951 16.0287 164.576 16.1595 165.111 16.4211C165.646 16.6826 166.064 17.0467 166.363 17.5133C166.67 17.9799 166.824 18.5243 166.824 19.1464C166.824 19.7615 166.67 20.3058 166.363 20.7795C166.064 21.2531 165.646 21.6208 165.111 21.8823C164.576 22.1439 163.951 22.2747 163.238 22.2747ZM163.238 21.4582C163.766 21.4582 164.223 21.3663 164.608 21.1824C164.993 20.9916 165.289 20.7229 165.496 20.3765C165.71 20.0301 165.817 19.6201 165.817 19.1464C165.817 18.6798 165.71 18.2733 165.496 17.9269C165.289 17.5805 164.993 17.3118 164.608 17.121C164.223 16.9301 163.766 16.8346 163.238 16.8346C162.717 16.8346 162.26 16.9301 161.868 17.121C161.482 17.3118 161.186 17.5805 160.979 17.9269C160.772 18.2733 160.669 18.6798 160.669 19.1464C160.669 19.6201 160.772 20.0301 160.979 20.3765C161.186 20.7229 161.482 20.9916 161.868 21.1824C162.26 21.3663 162.717 21.4582 163.238 21.4582Z" fill="#E3C5B6" style="fill:#E3C5B6;fill:color(display-p3 0.8902 0.7725 0.7137);fill-opacity:1;"/>
<path d="M171.523 22.2747C170.745 22.2747 170.078 22.1192 169.521 21.8081C168.964 21.49 168.536 21.034 168.237 20.4401C167.944 19.8463 167.798 19.1358 167.798 18.3086C167.798 17.0644 168.115 16.0853 168.75 15.3712C169.393 14.6501 170.302 14.2436 171.48 14.1517C171.951 14.1093 172.34 14.0739 172.647 14.0457C172.961 14.0174 173.218 13.9891 173.417 13.9608C173.617 13.9255 173.785 13.8901 173.92 13.8548C174.063 13.8194 174.202 13.777 174.338 13.7275V14.6183C174.209 14.6749 174.035 14.7244 173.813 14.7668C173.592 14.8092 173.307 14.8481 172.957 14.8834C172.615 14.9117 172.194 14.94 171.694 14.9683C170.709 15.0248 169.96 15.3359 169.446 15.9014C168.932 16.467 168.675 17.2659 168.675 18.298V18.6904L168.59 18.648C168.761 18.2026 168.997 17.8244 169.296 17.5133C169.603 17.2023 169.964 16.9654 170.377 16.8028C170.798 16.6402 171.259 16.5589 171.758 16.5589C172.379 16.5589 172.921 16.6791 173.385 16.9195C173.849 17.1528 174.209 17.4815 174.466 17.9057C174.73 18.3299 174.862 18.8212 174.862 19.3797C174.862 19.9665 174.723 20.4755 174.445 20.9067C174.167 21.338 173.778 21.6738 173.278 21.9141C172.779 22.1545 172.194 22.2747 171.523 22.2747ZM171.544 21.4582C172.015 21.4582 172.422 21.3733 172.764 21.2037C173.114 21.034 173.382 20.7936 173.567 20.4826C173.76 20.1715 173.856 19.8109 173.856 19.4009C173.856 18.9838 173.76 18.6232 173.567 18.3193C173.382 18.0082 173.114 17.7678 172.764 17.5982C172.422 17.4285 172.015 17.3436 171.544 17.3436C170.916 17.3436 170.367 17.5133 169.896 17.8527C169.432 18.192 169.086 18.6763 168.857 19.3055C168.993 19.9771 169.296 20.5038 169.767 20.8855C170.245 21.2673 170.838 21.4582 171.544 21.4582Z" fill="#E3C5B6" style="fill:#E3C5B6;fill:color(display-p3 0.8902 0.7725 0.7137);fill-opacity:1;"/>
<path d="M176.125 22.1368V16.1666H177.099V21.6915L176.724 21.6384L181.337 16.1666H182.611V22.1368H181.637V16.5589L182.022 16.6225L177.377 22.1368H176.125Z" fill="#E3C5B6" style="fill:#E3C5B6;fill:color(display-p3 0.8902 0.7725 0.7137);fill-opacity:1;"/>
<path d="M185.275 16.1666H190.905V22.1368H189.921V16.5059L190.37 16.9513H185.789L186.206 16.6119C186.249 17.0573 186.281 17.4956 186.303 17.9269C186.331 18.3511 186.345 18.7293 186.345 19.0616C186.345 20.1715 186.196 20.981 185.896 21.49C185.596 21.9919 185.118 22.2429 184.462 22.2429C184.29 22.2429 184.123 22.2217 183.958 22.1793C183.801 22.1439 183.652 22.0874 183.509 22.0096V21.2355C183.637 21.285 183.762 21.3274 183.883 21.3627C184.012 21.391 184.133 21.4051 184.247 21.4051C184.661 21.4051 184.961 21.2107 185.147 20.8219C185.339 20.4331 185.436 19.8003 185.436 18.9237C185.436 18.5632 185.421 18.1496 185.393 17.683C185.371 17.2093 185.332 16.7038 185.275 16.1666Z" fill="#E3C5B6" style="fill:#E3C5B6;fill:color(display-p3 0.8902 0.7725 0.7137);fill-opacity:1;"/>
<path d="M192.505 22.1368V16.1666H193.49V21.8293L193.093 21.3627H195.909C196.337 21.3627 196.676 21.2567 196.926 21.0446C197.175 20.8254 197.3 20.532 197.3 20.1644C197.3 19.7897 197.175 19.4963 196.926 19.2843C196.676 19.0651 196.337 18.9555 195.909 18.9555H193.168V18.2026H195.994C196.458 18.2026 196.861 18.2839 197.204 18.4465C197.554 18.6091 197.825 18.8389 198.017 19.1358C198.21 19.4327 198.306 19.7756 198.306 20.1644C198.306 20.5603 198.21 20.9067 198.017 21.2037C197.825 21.5006 197.554 21.7303 197.204 21.8929C196.861 22.0555 196.458 22.1368 195.994 22.1368H192.505Z" fill="#E3C5B6" style="fill:#E3C5B6;fill:color(display-p3 0.8902 0.7725 0.7137);fill-opacity:1;"/>
<path d="M199.373 16.1666H200.347V22.1368H199.373V16.1666ZM204.553 16.1666H205.538V22.1368H204.553V16.1666ZM199.918 18.7222H205.014V19.5176H199.918V18.7222Z" fill="#E3C5B6" style="fill:#E3C5B6;fill:color(display-p3 0.8902 0.7725 0.7137);fill-opacity:1;"/>
<path d="M213.712 16.1666H214.697V22.1368H213.712V16.1666ZM207.129 22.1368V16.1666H208.114V21.8293L207.718 21.3627H210.533C210.961 21.3627 211.3 21.2567 211.55 21.0446C211.799 20.8254 211.924 20.532 211.924 20.1644C211.924 19.7897 211.799 19.4963 211.55 19.2843C211.3 19.0651 210.961 18.9555 210.533 18.9555H207.792V18.2026H210.618C211.082 18.2026 211.485 18.2839 211.828 18.4465C212.178 18.6091 212.449 18.8389 212.641 19.1358C212.834 19.4327 212.93 19.7756 212.93 20.1644C212.93 20.5603 212.834 20.9067 212.641 21.2037C212.449 21.5006 212.178 21.7303 211.828 21.8929C211.485 22.0555 211.082 22.1368 210.618 22.1368H207.129Z" fill="#E3C5B6" style="fill:#E3C5B6;fill:color(display-p3 0.8902 0.7725 0.7137);fill-opacity:1;"/>
<path d="M219.475 22.2747C218.783 22.2747 218.17 22.1439 217.634 21.8823C217.106 21.6137 216.689 21.2461 216.382 20.7795C216.082 20.3058 215.932 19.7615 215.932 19.1464C215.932 18.5243 216.075 17.9799 216.361 17.5133C216.646 17.0467 217.042 16.6826 217.549 16.4211C218.055 16.1595 218.637 16.0287 219.293 16.0287C219.943 16.0287 220.51 16.1701 220.995 16.4529C221.481 16.7357 221.855 17.1351 222.119 17.6512C222.39 18.1602 222.526 18.754 222.526 19.4327H216.682V18.6586H222.109L221.531 19.0085C221.509 18.5632 221.402 18.1779 221.209 17.8527C221.017 17.5275 220.756 17.2765 220.428 17.0997C220.1 16.923 219.718 16.8346 219.283 16.8346C218.812 16.8346 218.401 16.9301 218.052 17.121C217.702 17.3048 217.427 17.5663 217.228 17.9057C217.035 18.245 216.939 18.6445 216.939 19.104C216.939 19.5847 217.049 20.0018 217.27 20.3553C217.492 20.7088 217.802 20.981 218.202 21.1718C218.601 21.3627 219.072 21.4582 219.615 21.4582C220.107 21.4582 220.589 21.3769 221.06 21.2143C221.538 21.0517 221.966 20.829 222.344 20.5462V21.3097C221.973 21.6066 221.531 21.8435 221.017 22.0202C220.503 22.1899 219.989 22.2747 219.475 22.2747Z" fill="#E3C5B6" style="fill:#E3C5B6;fill:color(display-p3 0.8902 0.7725 0.7137);fill-opacity:1;"/>
<path d="M235.121 19.0722C235.05 19.7014 234.825 20.2599 234.447 20.7477C234.069 21.2284 233.573 21.6031 232.959 21.8717C232.352 22.1404 231.657 22.2747 230.872 22.2747C229.987 22.2747 229.209 22.1015 228.538 21.7551C227.874 21.4087 227.357 20.9279 226.986 20.3129C226.615 19.6908 226.429 18.9732 226.429 18.1602C226.429 17.3401 226.615 16.6225 226.986 16.0075C227.357 15.3924 227.874 14.9117 228.538 14.5653C229.209 14.2189 229.987 14.0457 230.872 14.0457C231.657 14.0457 232.352 14.18 232.959 14.4486C233.573 14.7173 234.069 15.092 234.447 15.5727C234.825 16.0464 235.05 16.6013 235.121 17.2376H234.104C234.019 16.771 233.833 16.368 233.548 16.0287C233.262 15.6823 232.891 15.4172 232.434 15.2334C231.978 15.0425 231.453 14.947 230.861 14.947C230.169 14.947 229.566 15.0778 229.052 15.3394C228.545 15.601 228.153 15.9721 227.874 16.4529C227.596 16.9336 227.457 17.5027 227.457 18.1602C227.457 18.8106 227.596 19.3762 227.874 19.8569C228.153 20.3376 228.545 20.7123 229.052 20.981C229.566 21.2425 230.169 21.3733 230.861 21.3733C231.453 21.3733 231.978 21.2814 232.434 21.0976C232.891 20.9067 233.262 20.6416 233.548 20.3023C233.833 19.9559 234.019 19.5458 234.104 19.0722H235.121Z" fill="#E3C5B6" style="fill:#E3C5B6;fill:color(display-p3 0.8902 0.7725 0.7137);fill-opacity:1;"/>
<path d="M236.366 22.1368V16.1666H237.341V21.6915L236.966 21.6384L241.579 16.1666H242.853V22.1368H241.879V16.5589L242.264 16.6225L237.619 22.1368H236.366Z" fill="#E3C5B6" style="fill:#E3C5B6;fill:color(display-p3 0.8902 0.7725 0.7137);fill-opacity:1;"/>
<path d="M250.858 19.8675C250.78 20.3412 250.584 20.7583 250.27 21.1188C249.963 21.4794 249.57 21.7622 249.092 21.9672C248.614 22.1722 248.086 22.2747 247.508 22.2747C246.837 22.2747 246.245 22.1439 245.731 21.8823C245.217 21.6137 244.814 21.2461 244.522 20.7795C244.236 20.3058 244.093 19.7615 244.093 19.1464C244.093 18.5313 244.236 17.9905 244.522 17.5239C244.814 17.0503 245.217 16.6826 245.731 16.4211C246.245 16.1595 246.837 16.0287 247.508 16.0287C248.086 16.0287 248.614 16.1312 249.092 16.3362C249.57 16.5342 249.963 16.8134 250.27 17.174C250.584 17.5345 250.78 17.9552 250.858 18.4359H249.841C249.734 17.941 249.467 17.5522 249.039 17.2694C248.618 16.9796 248.107 16.8346 247.508 16.8346C247.023 16.8346 246.598 16.9301 246.234 17.121C245.877 17.3118 245.599 17.5805 245.399 17.9269C245.199 18.2662 245.1 18.6727 245.1 19.1464C245.1 19.6201 245.199 20.0301 245.399 20.3765C245.599 20.7229 245.877 20.9916 246.234 21.1824C246.598 21.3663 247.023 21.4582 247.508 21.4582C248.115 21.4582 248.628 21.3132 249.049 21.0234C249.478 20.7335 249.742 20.3482 249.841 19.8675H250.858Z" fill="#E3C5B6" style="fill:#E3C5B6;fill:color(display-p3 0.8902 0.7725 0.7137);fill-opacity:1;"/>
<path d="M253.681 16.4953H254.666V22.1368H253.681V16.4953ZM251.069 16.1666H257.277V16.9619H251.069V16.1666Z" fill="#E3C5B6" style="fill:#E3C5B6;fill:color(display-p3 0.8902 0.7725 0.7137);fill-opacity:1;"/>
<path d="M261.058 22.2747C260.366 22.2747 259.752 22.1439 259.217 21.8823C258.689 21.6137 258.272 21.2461 257.965 20.7795C257.665 20.3058 257.515 19.7615 257.515 19.1464C257.515 18.5243 257.658 17.9799 257.943 17.5133C258.229 17.0467 258.625 16.6826 259.132 16.4211C259.638 16.1595 260.22 16.0287 260.876 16.0287C261.526 16.0287 262.093 16.1701 262.578 16.4529C263.064 16.7357 263.438 17.1351 263.702 17.6512C263.973 18.1602 264.109 18.754 264.109 19.4327H258.265V18.6586H263.692L263.114 19.0085C263.092 18.5632 262.985 18.1779 262.792 17.8527C262.6 17.5275 262.339 17.2765 262.011 17.0997C261.683 16.923 261.301 16.8346 260.866 16.8346C260.395 16.8346 259.984 16.9301 259.635 17.121C259.285 17.3048 259.01 17.5663 258.81 17.9057C258.618 18.245 258.521 18.6445 258.521 19.104C258.521 19.5847 258.632 20.0018 258.853 20.3553C259.075 20.7088 259.385 20.981 259.785 21.1718C260.184 21.3627 260.655 21.4582 261.198 21.4582C261.69 21.4582 262.172 21.3769 262.643 21.2143C263.121 21.0517 263.549 20.829 263.927 20.5462V21.3097C263.556 21.6066 263.114 21.8435 262.6 22.0202C262.086 22.1899 261.572 22.2747 261.058 22.2747Z" fill="#E3C5B6" style="fill:#E3C5B6;fill:color(display-p3 0.8902 0.7725 0.7137);fill-opacity:1;"/>
<path d="M265.332 22.1368V16.1666H266.788L269.657 21.7339H269.143L272.001 16.1666H273.457V22.1368H272.526V16.4423H272.857L269.882 22.1368H268.908L265.932 16.4529H266.264V22.1368H265.332Z" fill="#E3C5B6" style="fill:#E3C5B6;fill:color(display-p3 0.8902 0.7725 0.7137);fill-opacity:1;"/>
<path d="M281.647 16.1666H282.632V22.1368H281.647V16.1666ZM275.064 22.1368V16.1666H276.049V21.8293L275.653 21.3627H278.468C278.896 21.3627 279.235 21.2567 279.485 21.0446C279.735 20.8254 279.86 20.532 279.86 20.1644C279.86 19.7897 279.735 19.4963 279.485 19.2843C279.235 19.0651 278.896 18.9555 278.468 18.9555H275.728V18.2026H278.554C279.018 18.2026 279.421 18.2839 279.763 18.4465C280.113 18.6091 280.384 18.8389 280.577 19.1358C280.77 19.4327 280.866 19.7756 280.866 20.1644C280.866 20.5603 280.77 20.9067 280.577 21.2037C280.384 21.5006 280.113 21.7303 279.763 21.8929C279.421 22.0555 279.018 22.1368 278.554 22.1368H275.064Z" fill="#E3C5B6" style="fill:#E3C5B6;fill:color(display-p3 0.8902 0.7725 0.7137);fill-opacity:1;"/>
<path d="M147.828 34.8621V28.8919H148.802V34.4168L148.427 34.3637L153.041 28.8919H154.314V34.8621H153.34V29.2842L153.726 29.3478L149.08 34.8621H147.828Z" fill="#E3C5B6" style="fill:#E3C5B6;fill:color(display-p3 0.8902 0.7725 0.7137);fill-opacity:1;"/>
<path d="M161.284 27.386H162.29V34.8621H161.284V27.386ZM157.837 26.9088H165.737V27.789H157.837V26.9088Z" fill="#E3C5B6" style="fill:#E3C5B6;fill:color(display-p3 0.8902 0.7725 0.7137);fill-opacity:1;"/>
<path d="M167.847 35C167.155 35 166.541 34.8692 166.006 34.6076C165.478 34.339 165.06 33.9714 164.753 33.5048C164.454 33.0311 164.304 32.4868 164.304 31.8717C164.304 31.2496 164.447 30.7052 164.732 30.2386C165.017 29.772 165.414 29.4079 165.92 29.1464C166.427 28.8848 167.008 28.754 167.665 28.754C168.314 28.754 168.882 28.8954 169.367 29.1782C169.852 29.461 170.227 29.8604 170.491 30.3765C170.762 30.8855 170.898 31.4793 170.898 32.158H165.053V31.3839H170.48L169.902 31.7338C169.881 31.2885 169.774 30.9032 169.581 30.578C169.388 30.2528 169.128 30.0018 168.8 29.825C168.471 29.6483 168.09 29.5599 167.654 29.5599C167.183 29.5599 166.773 29.6554 166.423 29.8463C166.074 30.0301 165.799 30.2916 165.599 30.631C165.406 30.9703 165.31 31.3698 165.31 31.8293C165.31 32.31 165.421 32.7271 165.642 33.0806C165.863 33.4341 166.174 33.7063 166.573 33.8971C166.973 34.088 167.444 34.1835 167.986 34.1835C168.478 34.1835 168.96 34.1022 169.431 33.9396C169.909 33.777 170.337 33.5543 170.716 33.2715V34.035C170.345 34.3319 169.902 34.5688 169.388 34.7455C168.875 34.9152 168.361 35 167.847 35Z" fill="#E3C5B6" style="fill:#E3C5B6;fill:color(display-p3 0.8902 0.7725 0.7137);fill-opacity:1;"/>
<path d="M171.098 34.8621L174.063 31.4157L174.053 32.1262L171.27 28.8919H172.436L174.695 31.5005H174.117L176.386 28.8919H177.51L174.695 32.1368L174.674 31.3733L177.681 34.8621H176.536L174.074 32.0308H174.663L172.212 34.8621H171.098Z" fill="#E3C5B6" style="fill:#E3C5B6;fill:color(display-p3 0.8902 0.7725 0.7137);fill-opacity:1;"/>
<path d="M178.466 28.8919H179.44V34.8621H178.466V28.8919ZM183.647 28.8919H184.632V34.8621H183.647V28.8919ZM179.012 31.4475H184.107V32.2429H179.012V31.4475Z" fill="#E3C5B6" style="fill:#E3C5B6;fill:color(display-p3 0.8902 0.7725 0.7137);fill-opacity:1;"/>
<path d="M189.434 35C188.727 35 188.103 34.8692 187.56 34.6076C187.025 34.3461 186.608 33.9784 186.308 33.5048C186.008 33.0311 185.858 32.4868 185.858 31.8717C185.858 31.2496 186.008 30.7052 186.308 30.2386C186.608 29.772 187.025 29.4079 187.56 29.1464C188.103 28.8848 188.727 28.754 189.434 28.754C190.147 28.754 190.772 28.8848 191.307 29.1464C191.842 29.4079 192.259 29.772 192.559 30.2386C192.866 30.7052 193.019 31.2496 193.019 31.8717C193.019 32.4868 192.866 33.0311 192.559 33.5048C192.259 33.9784 191.842 34.3461 191.307 34.6076C190.772 34.8692 190.147 35 189.434 35ZM189.434 34.1835C189.962 34.1835 190.418 34.0916 190.804 33.9077C191.189 33.7169 191.485 33.4482 191.692 33.1018C191.906 32.7554 192.013 32.3454 192.013 31.8717C192.013 31.4051 191.906 30.9986 191.692 30.6522C191.485 30.3058 191.189 30.0371 190.804 29.8463C190.418 29.6554 189.962 29.5599 189.434 29.5599C188.913 29.5599 188.456 29.6554 188.063 29.8463C187.678 30.0371 187.382 30.3058 187.175 30.6522C186.968 30.9986 186.865 31.4051 186.865 31.8717C186.865 32.3454 186.968 32.7554 187.175 33.1018C187.382 33.4482 187.678 33.7169 188.063 33.9077C188.456 34.0916 188.913 34.1835 189.434 34.1835Z" fill="#E3C5B6" style="fill:#E3C5B6;fill:color(display-p3 0.8902 0.7725 0.7137);fill-opacity:1;"/>
<path d="M195.049 28.8919H200.679V34.8621H199.694V29.2312L200.144 29.6766H195.563L195.98 29.3372C196.023 29.7826 196.055 30.2209 196.076 30.6522C196.105 31.0764 196.119 31.4546 196.119 31.7869C196.119 32.8968 195.969 33.7063 195.67 34.2153C195.37 34.7172 194.892 34.9682 194.235 34.9682C194.064 34.9682 193.896 34.947 193.732 34.9046C193.575 34.8692 193.425 34.8127 193.283 34.7349V33.9608C193.411 34.0103 193.536 34.0527 193.657 34.088C193.786 34.1163 193.907 34.1304 194.021 34.1304C194.435 34.1304 194.735 33.936 194.92 33.5472C195.113 33.1584 195.209 32.5256 195.209 31.649C195.209 31.2885 195.195 30.8749 195.167 30.4083C195.145 29.9346 195.106 29.4291 195.049 28.8919Z" fill="#E3C5B6" style="fill:#E3C5B6;fill:color(display-p3 0.8902 0.7725 0.7137);fill-opacity:1;"/>
<path d="M205.49 35C204.783 35 204.159 34.8692 203.617 34.6076C203.081 34.3461 202.664 33.9784 202.364 33.5048C202.064 33.0311 201.915 32.4868 201.915 31.8717C201.915 31.2496 202.064 30.7052 202.364 30.2386C202.664 29.772 203.081 29.4079 203.617 29.1464C204.159 28.8848 204.783 28.754 205.49 28.754C206.203 28.754 206.828 28.8848 207.363 29.1464C207.898 29.4079 208.316 29.772 208.615 30.2386C208.922 30.7052 209.076 31.2496 209.076 31.8717C209.076 32.4868 208.922 33.0311 208.615 33.5048C208.316 33.9784 207.898 34.3461 207.363 34.6076C206.828 34.8692 206.203 35 205.49 35ZM205.49 34.1835C206.018 34.1835 206.475 34.0916 206.86 33.9077C207.245 33.7169 207.541 33.4482 207.748 33.1018C207.962 32.7554 208.069 32.3454 208.069 31.8717C208.069 31.4051 207.962 30.9986 207.748 30.6522C207.541 30.3058 207.245 30.0371 206.86 29.8463C206.475 29.6554 206.018 29.5599 205.49 29.5599C204.969 29.5599 204.512 29.6554 204.12 29.8463C203.734 30.0371 203.438 30.3058 203.231 30.6522C203.024 30.9986 202.921 31.4051 202.921 31.8717C202.921 32.3454 203.024 32.7554 203.231 33.1018C203.438 33.4482 203.734 33.7169 204.12 33.9077C204.512 34.0916 204.969 34.1835 205.49 34.1835Z" fill="#E3C5B6" style="fill:#E3C5B6;fill:color(display-p3 0.8902 0.7725 0.7137);fill-opacity:1;"/>
<path d="M214.824 28.8919V29.6872H210.831L211.291 29.2418V34.8621H210.307V28.8919H214.824Z" fill="#E3C5B6" style="fill:#E3C5B6;fill:color(display-p3 0.8902 0.7725 0.7137);fill-opacity:1;"/>
<path d="M215.753 34.8621V28.8919H216.727V34.4168L216.352 34.3637L220.966 28.8919H222.239V34.8621H221.265V29.2842L221.651 29.3478L217.005 34.8621H215.753Z" fill="#E3C5B6" style="fill:#E3C5B6;fill:color(display-p3 0.8902 0.7725 0.7137);fill-opacity:1;"/>
<path d="M223.844 34.8621V28.8919H224.818V34.4168L224.443 34.3637L229.056 28.8919H230.33V34.8621H229.356V29.2842L229.741 29.3478L225.096 34.8621H223.844Z" fill="#E3C5B6" style="fill:#E3C5B6;fill:color(display-p3 0.8902 0.7725 0.7137);fill-opacity:1;"/>
<path d="M51.7834 13.7275V35.1502H49.1885V14.3559L50.2553 14.3844L39.3279 30.4496H36.4447L25.5174 14.413L26.5841 14.3844V35.1502H23.9893V13.7275H28.0834L38.7513 29.5356H37.0502L47.6893 13.7275H51.7834Z" fill="#E3C5B6" style="fill:#E3C5B6;fill:color(display-p3 0.8902 0.7725 0.7137);fill-opacity:1;"/>
<path d="M110.697 15.0128H113.407V35.1502H110.697V15.0128ZM101.413 13.7275H122.691V16.0983H101.413V13.7275Z" fill="#E3C5B6" style="fill:#E3C5B6;fill:color(display-p3 0.8902 0.7725 0.7137);fill-opacity:1;"/>
<path d="M65.3503 35.1502C63.7053 35.1502 62.2513 34.8506 60.9885 34.2515C59.7422 33.6523 58.7701 32.8103 58.0722 31.7254C57.3743 30.6405 57.0254 29.3936 57.0254 27.9849C57.0254 26.5599 57.3743 25.3131 58.0722 24.2443C58.7701 23.1756 59.7422 22.3417 60.9885 21.7426C62.2513 21.1434 63.7053 20.8439 65.3503 20.8439C67.012 20.8439 68.466 21.1434 69.7122 21.7426C70.9585 22.3417 71.9305 23.1756 72.6284 24.2443C73.343 25.3131 73.7002 26.5599 73.7002 27.9849C73.7002 29.3936 73.343 30.6405 72.6284 31.7254C71.9305 32.8103 70.9585 33.6523 69.7122 34.2515C68.466 34.8506 67.012 35.1502 65.3503 35.1502ZM65.3503 33.2799C66.58 33.2799 67.6434 33.0694 68.5407 32.6484C69.438 32.2112 70.1276 31.5959 70.6095 30.8024C71.108 30.009 71.3573 29.0698 71.3573 27.9849C71.3573 26.9162 71.108 25.9851 70.6095 25.1916C70.1276 24.3982 69.438 23.7829 68.5407 23.3456C67.6434 22.9084 66.58 22.6898 65.3503 22.6898C64.1373 22.6898 63.0739 22.9084 62.1599 23.3456C61.2626 23.7829 60.5731 24.3982 60.0912 25.1916C59.6093 25.9851 59.3683 26.9162 59.3683 27.9849C59.3683 29.0698 59.6093 30.009 60.0912 30.8024C60.5731 31.5959 61.2626 32.2112 62.1599 32.6484C63.0739 33.0694 64.1373 33.2799 65.3503 33.2799Z" fill="#E3C5B6" style="fill:#E3C5B6;fill:color(display-p3 0.8902 0.7725 0.7137);fill-opacity:1;"/>
<path d="M95.6733 14.7764C93.9907 14.0772 92.0605 13.7275 89.8831 13.7275C87.4285 13.7276 85.2705 14.1785 83.4097 15.0801C81.5688 15.9817 80.1333 17.2332 79.104 18.834C78.0748 20.4347 77.5603 22.3023 77.5603 24.4365C77.5603 26.5526 78.0746 28.4208 79.104 30.04C80.1334 31.6409 81.5687 32.8923 83.4097 33.7939C85.2705 34.6956 87.4285 35.1455 89.8831 35.1455C92.0606 35.1455 93.9907 34.7959 95.6733 34.0967C97.3758 33.3975 98.7514 32.4221 99.8006 31.1709L97.7828 29.3975C97.6366 29.6096 97.4792 29.8153 97.3067 30.0117C96.5149 30.895 95.4853 31.5852 94.2184 32.082C92.9515 32.5604 91.4965 32.7998 89.8535 32.7998C87.9333 32.7998 86.2604 32.4591 84.8351 31.7783C83.4297 31.0791 82.3413 30.1037 81.5693 28.8525C80.7973 27.6013 80.4111 26.1293 80.4111 24.4365C80.4111 22.7253 80.7973 21.2444 81.5693 19.9932C82.3413 18.742 83.4296 17.7756 84.8351 17.0947C86.2604 16.4139 87.9333 16.0733 89.8535 16.0732C91.4964 16.0732 92.9515 16.3216 94.2184 16.8184C95.4852 17.2968 96.5149 17.9871 97.3067 18.8887C97.4135 19.0078 97.5146 19.1307 97.6113 19.2559L99.8006 17.7021C98.7515 16.451 97.3757 15.4756 95.6733 14.7764Z" fill="#E3C5B6" style="fill:#E3C5B6;fill:color(display-p3 0.8902 0.7725 0.7137);fill-opacity:1;"/>
<path d="M2.67263 11.7755L3.63703 12.1138C2.29083 15.8675 1.78835 19.8679 2.16547 23.8339C2.54292 27.8003 3.79073 31.6387 5.82139 35.0773C7.85212 38.5158 10.6169 41.474 13.9219 43.7433C16.8223 45.7347 20.078 47.154 23.51 47.9289V50C19.6572 49.1928 16.0007 47.6353 12.7579 45.4089C9.20782 42.9713 6.23758 39.7934 4.05633 36.1C1.87549 32.4069 0.53636 28.2855 0.130859 24.0258C-0.274384 19.7657 0.264201 15.4674 1.71023 11.4353L2.67263 11.7755Z" fill="white" style="fill:white;fill-opacity:1;"/>
<path d="M2.67263 11.7755L3.63703 12.1138C2.29083 15.8675 1.78835 19.8679 2.16547 23.8339C2.54292 27.8003 3.79073 31.6387 5.82139 35.0773C7.85212 38.5158 10.6169 41.474 13.9219 43.7433C16.8223 45.7347 20.078 47.154 23.51 47.9289V50C19.6572 49.1928 16.0007 47.6353 12.7579 45.4089C9.20782 42.9713 6.23758 39.7934 4.05633 36.1C1.87549 32.4069 0.53636 28.2855 0.130859 24.0258C-0.274384 19.7657 0.264201 15.4674 1.71023 11.4353L2.67263 11.7755Z" fill="url(#paint0_linear_2153_873)" style=""/>
<path d="M2.67263 11.7755L3.63703 12.1138C2.29083 15.8675 1.78835 19.8679 2.16547 23.8339C2.54292 27.8003 3.79073 31.6387 5.82139 35.0773C7.85212 38.5158 10.6169 41.474 13.9219 43.7433C16.8223 45.7347 20.078 47.154 23.51 47.9289V50C19.6572 49.1928 16.0007 47.6353 12.7579 45.4089C9.20782 42.9713 6.23758 39.7934 4.05633 36.1C1.87549 32.4069 0.53636 28.2855 0.130859 24.0258C-0.274384 19.7657 0.264201 15.4674 1.71023 11.4353L2.67263 11.7755Z" fill="#9B6858" style="fill:#9B6858;fill:color(display-p3 0.6078 0.4078 0.3451);fill-opacity:1;"/>
<path d="M15.4621 1.43609L16.0531 2.26095C12.7612 4.57157 10.1252 7.68485 8.39787 11.2968C6.67072 14.909 5.91111 18.9011 6.19154 22.8884C6.47216 26.8756 7.78302 30.7248 9.99921 34.0646C12.2158 37.4044 15.2626 40.1252 18.8465 41.9611C20.3378 42.7249 21.9026 43.3208 23.5107 43.7512V45.8441C21.5751 45.3699 19.6937 44.6737 17.908 43.7592C14.0127 41.7638 10.7013 38.8082 8.29205 35.1782C5.88285 31.5478 4.45597 27.363 4.15094 23.0288C3.84619 18.6949 4.67158 14.3547 6.54895 10.4285C8.42642 6.50267 11.2932 3.12071 14.8711 0.609253L15.4621 1.43609Z" fill="white" style="fill:white;fill-opacity:1;"/>
<path d="M15.4621 1.43609L16.0531 2.26095C12.7612 4.57157 10.1252 7.68485 8.39787 11.2968C6.67072 14.909 5.91111 18.9011 6.19154 22.8884C6.47216 26.8756 7.78302 30.7248 9.99921 34.0646C12.2158 37.4044 15.2626 40.1252 18.8465 41.9611C20.3378 42.7249 21.9026 43.3208 23.5107 43.7512V45.8441C21.5751 45.3699 19.6937 44.6737 17.908 43.7592C14.0127 41.7638 10.7013 38.8082 8.29205 35.1782C5.88285 31.5478 4.45597 27.363 4.15094 23.0288C3.84619 18.6949 4.67158 14.3547 6.54895 10.4285C8.42642 6.50267 11.2932 3.12071 14.8711 0.609253L15.4621 1.43609Z" fill="url(#paint1_linear_2153_873)" style=""/>
<path d="M15.4621 1.43609L16.0531 2.26095C12.7612 4.57157 10.1252 7.68485 8.39787 11.2968C6.67072 14.909 5.91111 18.9011 6.19154 22.8884C6.47216 26.8756 7.78302 30.7248 9.99921 34.0646C12.2158 37.4044 15.2626 40.1252 18.8465 41.9611C20.3378 42.7249 21.9026 43.3208 23.5107 43.7512V45.8441C21.5751 45.3699 19.6937 44.6737 17.908 43.7592C14.0127 41.7638 10.7013 38.8082 8.29205 35.1782C5.88285 31.5478 4.45597 27.363 4.15094 23.0288C3.84619 18.6949 4.67158 14.3547 6.54895 10.4285C8.42642 6.50267 11.2932 3.12071 14.8711 0.609253L15.4621 1.43609Z" fill="url(#paint2_linear_2153_873)" style=""/>
<path d="M17.3577 3.82721C21.4098 1.02595 26.3152 -0.305258 31.2426 0.0589665C36.1699 0.423636 40.8215 2.46088 44.4087 5.82706L43.0031 7.29875C39.7574 4.25282 35.5491 2.40858 31.0909 2.07859C26.6327 1.74897 22.194 2.95431 18.5278 5.4888C14.862 8.02373 12.1898 11.7352 10.9644 15.9944C9.73916 20.2541 10.0365 24.8029 11.803 28.8717C13.5698 32.9405 16.7 36.2807 20.6642 38.3289C21.5836 38.8039 22.5361 39.1985 23.5095 39.5197V41.6422C22.2077 41.2575 20.9366 40.7547 19.7178 40.125C15.3365 37.8612 11.8769 34.1697 9.9241 29.6728C7.97156 25.1756 7.6453 20.1468 8.99964 15.4386C10.3542 10.7311 13.306 6.62888 17.3577 3.82721Z" fill="#E3C5B6" style="fill:#E3C5B6;fill:color(display-p3 0.8902 0.7725 0.7137);fill-opacity:1;"/>
<line x1="135.76" y1="10.5" x2="135.76" y2="39.5" stroke="url(#paint3_linear_2153_873)" style="" stroke-linecap="round"/>
<defs>
<linearGradient id="paint0_linear_2153_873" x1="11.755" y1="11.4353" x2="11.755" y2="50" gradientUnits="userSpaceOnUse">
<stop stop-color="#FFE4BB" style="stop-color:#FFE4BB;stop-color:color(display-p3 1.0000 0.8928 0.7321);stop-opacity:1;"/>
<stop offset="0.259615" stop-color="#B09680" style="stop-color:#B09680;stop-color:color(display-p3 0.6893 0.5867 0.5012);stop-opacity:1;"/>
<stop offset="0.610577" stop-color="#624946" style="stop-color:#624946;stop-color:color(display-p3 0.3843 0.2863 0.2745);stop-opacity:1;"/>
<stop offset="0.75" stop-color="#473638" style="stop-color:#473638;stop-color:color(display-p3 0.2778 0.2102 0.2212);stop-opacity:1;"/>
<stop offset="1" stop-color="#2A212A" style="stop-color:#2A212A;stop-color:color(display-p3 0.1647 0.1294 0.1647);stop-opacity:1;"/>
</linearGradient>
<linearGradient id="paint1_linear_2153_873" x1="13.7999" y1="0.609253" x2="13.7999" y2="45.8441" gradientUnits="userSpaceOnUse">
<stop stop-color="#E8D2A8" style="stop-color:#E8D2A8;stop-color:color(display-p3 0.9098 0.8235 0.6588);stop-opacity:1;"/>
<stop offset="1" stop-color="#E8BB88" style="stop-color:#E8BB88;stop-color:color(display-p3 0.9098 0.7333 0.5333);stop-opacity:1;"/>
</linearGradient>
<linearGradient id="paint2_linear_2153_873" x1="13.7999" y1="0.609253" x2="13.7999" y2="45.8441" gradientUnits="userSpaceOnUse">
<stop stop-color="#BA9C8C" style="stop-color:#BA9C8C;stop-color:color(display-p3 0.7294 0.6118 0.5490);stop-opacity:1;"/>
<stop offset="1" stop-color="#A47764" style="stop-color:#A47764;stop-color:color(display-p3 0.6431 0.4667 0.3922);stop-opacity:1;"/>
</linearGradient>
<linearGradient id="paint3_linear_2153_873" x1="134.76" y1="40" x2="133.635" y2="7.77178" gradientUnits="userSpaceOnUse">
<stop offset="0.00961538" stop-color="#E8D2A8" stop-opacity="0" style="stop-color:none;stop-opacity:0;"/>
<stop offset="0.360577" stop-color="#E8CA9D" style="stop-color:#E8CA9D;stop-color:color(display-p3 0.9098 0.7916 0.6144);stop-opacity:1;"/>
<stop offset="0.8125" stop-color="#E8BB88" style="stop-color:#E8BB88;stop-color:color(display-p3 0.9098 0.7333 0.5333);stop-opacity:1;"/>
<stop offset="0.942308" stop-color="#E8BB88" stop-opacity="0" style="stop-color:none;stop-opacity:0;"/>
</linearGradient>
</defs>
</svg>
