<svg width="376" height="67" viewBox="0 0 376 67" fill="none" xmlns="http://www.w3.org/2000/svg">
<path d="M210.17 19.0056V29.663H208.891V19.3182L209.417 19.3324L204.032 29.663H202.611L197.225 19.3466L197.751 19.3324V29.663H196.472V19.0056H198.49L203.747 29.2083H202.909L208.153 19.0056H210.17Z" fill="#E3C5B6" style="fill:#E3C5B6;fill:color(display-p3 0.8902 0.7725 0.7137);fill-opacity:1;"/>
<path d="M216.702 29.8477C215.764 29.8477 214.935 29.6725 214.215 29.322C213.505 28.9714 212.95 28.4788 212.553 27.8441C212.155 27.2094 211.956 26.48 211.956 25.6558C211.956 24.8222 212.155 24.0927 212.553 23.4675C212.95 22.8422 213.505 22.3544 214.215 22.0039C214.935 21.6533 215.764 21.4781 216.702 21.4781C217.649 21.4781 218.478 21.6533 219.189 22.0039C219.899 22.3544 220.453 22.8422 220.851 23.4675C221.259 24.0927 221.462 24.8222 221.462 25.6558C221.462 26.48 221.259 27.2094 220.851 27.8441C220.453 28.4788 219.899 28.9714 219.189 29.322C218.478 29.6725 217.649 29.8477 216.702 29.8477ZM216.702 28.7536C217.403 28.7536 218.009 28.6304 218.521 28.3841C219.032 28.1283 219.425 27.7683 219.7 27.3042C219.984 26.84 220.127 26.2905 220.127 25.6558C220.127 25.0306 219.984 24.4859 219.7 24.0217C219.425 23.5575 219.032 23.1975 218.521 22.9417C218.009 22.6859 217.403 22.558 216.702 22.558C216.01 22.558 215.404 22.6859 214.883 22.9417C214.371 23.1975 213.978 23.5575 213.704 24.0217C213.429 24.4859 213.292 25.0306 213.292 25.6558C213.292 26.2905 213.429 26.84 213.704 27.3042C213.978 27.7683 214.371 28.1283 214.883 28.3841C215.404 28.6304 216.01 28.7536 216.702 28.7536Z" fill="#E3C5B6" style="fill:#E3C5B6;fill:color(display-p3 0.8902 0.7725 0.7137);fill-opacity:1;"/>
<path d="M227.7 29.8477C226.668 29.8477 225.782 29.6393 225.043 29.2225C224.304 28.7962 223.736 28.1852 223.338 27.3894C222.95 26.5937 222.755 25.6416 222.755 24.5332C222.755 22.8659 223.177 21.5539 224.02 20.5971C224.873 19.6308 226.08 19.0861 227.644 18.9629C228.269 18.9061 228.785 18.8587 229.192 18.8208C229.609 18.7829 229.95 18.745 230.216 18.7071C230.481 18.6598 230.703 18.6124 230.883 18.5651C231.073 18.5177 231.258 18.4608 231.438 18.3945V19.5882C231.267 19.664 231.035 19.7303 230.741 19.7871C230.448 19.8439 230.069 19.896 229.605 19.9434C229.15 19.9813 228.591 20.0192 227.928 20.0571C226.62 20.1329 225.626 20.5497 224.944 21.3076C224.262 22.0654 223.921 23.1359 223.921 24.519V25.0448L223.807 24.9879C224.034 24.3911 224.347 23.8843 224.745 23.4675C225.152 23.0506 225.63 22.7333 226.18 22.5154C226.739 22.2975 227.35 22.1886 228.013 22.1886C228.837 22.1886 229.557 22.3496 230.173 22.6717C230.789 22.9843 231.267 23.4248 231.608 23.9932C231.959 24.5616 232.134 25.22 232.134 25.9684C232.134 26.7547 231.949 27.4368 231.58 28.0146C231.21 28.5925 230.694 29.0425 230.031 29.3646C229.368 29.6867 228.591 29.8477 227.7 29.8477ZM227.729 28.7536C228.354 28.7536 228.894 28.6399 229.349 28.4125C229.813 28.1852 230.168 27.8631 230.414 27.4462C230.67 27.0294 230.798 26.5463 230.798 25.9968C230.798 25.4379 230.67 24.9548 230.414 24.5474C230.168 24.1306 229.813 23.8085 229.349 23.5812C228.894 23.3538 228.354 23.2401 227.729 23.2401C226.895 23.2401 226.166 23.4675 225.54 23.9222C224.925 24.3769 224.465 25.0258 224.162 25.8689C224.342 26.7689 224.745 27.4747 225.37 27.9862C226.005 28.4978 226.791 28.7536 227.729 28.7536Z" fill="#E3C5B6" style="fill:#E3C5B6;fill:color(display-p3 0.8902 0.7725 0.7137);fill-opacity:1;"/>
<path d="M233.809 29.663V21.6628H235.102V29.0662L234.605 28.9951L240.73 21.6628H242.421V29.663H241.127V22.1886L241.639 22.2738L235.472 29.663H233.809Z" fill="#E3C5B6" style="fill:#E3C5B6;fill:color(display-p3 0.8902 0.7725 0.7137);fill-opacity:1;"/>
<path d="M245.957 21.6628H253.431V29.663H252.124V22.1175L252.721 22.7143H246.639L247.193 22.2596C247.25 22.8564 247.293 23.4438 247.321 24.0217C247.359 24.5901 247.378 25.0969 247.378 25.5421C247.378 27.0294 247.179 28.1141 246.781 28.7962C246.383 29.4688 245.748 29.8051 244.877 29.8051C244.649 29.8051 244.427 29.7767 244.209 29.7198C244.001 29.6725 243.802 29.5967 243.612 29.4925V28.4552C243.783 28.5215 243.948 28.5783 244.11 28.6257C244.28 28.6636 244.441 28.6825 244.593 28.6825C245.142 28.6825 245.54 28.422 245.786 27.901C246.042 27.3799 246.17 26.5321 246.17 25.3574C246.17 24.8743 246.151 24.3201 246.113 23.6948C246.085 23.0601 246.033 22.3828 245.957 21.6628Z" fill="#E3C5B6" style="fill:#E3C5B6;fill:color(display-p3 0.8902 0.7725 0.7137);fill-opacity:1;"/>
<path d="M255.554 29.663V21.6628H256.862V29.2509L256.336 28.6257H260.073C260.642 28.6257 261.092 28.4836 261.423 28.1994C261.755 27.9057 261.92 27.5126 261.92 27.02C261.92 26.5179 261.755 26.1247 261.423 25.8405C261.092 25.5469 260.642 25.4 260.073 25.4H256.435V24.3911H260.187C260.803 24.3911 261.338 24.5001 261.793 24.7179C262.257 24.9358 262.617 25.2437 262.872 25.6416C263.128 26.0395 263.256 26.4989 263.256 27.02C263.256 27.5505 263.128 28.0146 262.872 28.4125C262.617 28.8104 262.257 29.1183 261.793 29.3362C261.338 29.5541 260.803 29.663 260.187 29.663H255.554Z" fill="#E3C5B6" style="fill:#E3C5B6;fill:color(display-p3 0.8902 0.7725 0.7137);fill-opacity:1;"/>
<path d="M264.671 21.6628H265.965V29.663H264.671V21.6628ZM271.549 21.6628H272.856V29.663H271.549V21.6628ZM265.396 25.0874H272.16V26.1531H265.396V25.0874Z" fill="#E3C5B6" style="fill:#E3C5B6;fill:color(display-p3 0.8902 0.7725 0.7137);fill-opacity:1;"/>
<path d="M283.707 21.6628H285.015V29.663H283.707V21.6628ZM274.968 29.663V21.6628H276.275V29.2509L275.75 28.6257H279.487C280.055 28.6257 280.505 28.4836 280.837 28.1994C281.168 27.9057 281.334 27.5126 281.334 27.02C281.334 26.5179 281.168 26.1247 280.837 25.8405C280.505 25.5469 280.055 25.4 279.487 25.4H275.849V24.3911H279.601C280.216 24.3911 280.752 24.5001 281.206 24.7179C281.67 24.9358 282.03 25.2437 282.286 25.6416C282.542 26.0395 282.67 26.4989 282.67 27.02C282.67 27.5505 282.542 28.0146 282.286 28.4125C282.03 28.8104 281.67 29.1183 281.206 29.3362C280.752 29.5541 280.216 29.663 279.601 29.663H274.968Z" fill="#E3C5B6" style="fill:#E3C5B6;fill:color(display-p3 0.8902 0.7725 0.7137);fill-opacity:1;"/>
<path d="M291.358 29.8477C290.44 29.8477 289.625 29.6725 288.914 29.322C288.213 28.962 287.659 28.4694 287.252 27.8441C286.854 27.2094 286.655 26.48 286.655 25.6558C286.655 24.8222 286.844 24.0927 287.223 23.4675C287.602 22.8422 288.128 22.3544 288.801 22.0039C289.473 21.6533 290.245 21.4781 291.117 21.4781C291.979 21.4781 292.732 21.6675 293.376 22.0465C294.02 22.4254 294.518 22.9607 294.868 23.6522C295.228 24.3343 295.408 25.13 295.408 26.0395H287.65V25.0021H294.854L294.087 25.4711C294.058 24.8743 293.916 24.358 293.661 23.9222C293.405 23.4864 293.059 23.1501 292.623 22.9133C292.187 22.6765 291.681 22.558 291.103 22.558C290.477 22.558 289.933 22.6859 289.469 22.9417C289.004 23.188 288.64 23.5385 288.374 23.9932C288.119 24.448 287.991 24.9832 287.991 25.599C287.991 26.2431 288.138 26.8021 288.431 27.2757C288.725 27.7494 289.137 28.1141 289.668 28.3699C290.198 28.6257 290.823 28.7536 291.543 28.7536C292.197 28.7536 292.836 28.6446 293.462 28.4267C294.096 28.2088 294.665 27.9104 295.167 27.5315V28.5546C294.674 28.9525 294.087 29.2699 293.405 29.5067C292.723 29.734 292.041 29.8477 291.358 29.8477Z" fill="#E3C5B6" style="fill:#E3C5B6;fill:color(display-p3 0.8902 0.7725 0.7137);fill-opacity:1;"/>
<path d="M312.129 25.5563C312.034 26.3995 311.735 27.1478 311.233 27.8015C310.731 28.4457 310.073 28.9478 309.258 29.3077C308.453 29.6677 307.529 29.8477 306.487 29.8477C305.312 29.8477 304.28 29.6156 303.389 29.1514C302.508 28.6872 301.822 28.0431 301.329 27.2189C300.836 26.3852 300.59 25.4237 300.59 24.3343C300.59 23.2354 300.836 22.2738 301.329 21.4497C301.822 20.6255 302.508 19.9813 303.389 19.5171C304.28 19.0529 305.312 18.8208 306.487 18.8208C307.529 18.8208 308.453 19.0008 309.258 19.3608C310.073 19.7208 310.731 20.2229 311.233 20.8671C311.735 21.5018 312.034 22.2454 312.129 23.098H310.779C310.665 22.4728 310.419 21.9328 310.04 21.4781C309.661 21.0139 309.168 20.6586 308.562 20.4123C307.956 20.1566 307.259 20.0287 306.473 20.0287C305.554 20.0287 304.754 20.2039 304.071 20.5544C303.399 20.905 302.878 21.4023 302.508 22.0465C302.139 22.6907 301.954 23.4533 301.954 24.3343C301.954 25.2058 302.139 25.9637 302.508 26.6079C302.878 27.252 303.399 27.7541 304.071 28.1141C304.754 28.4646 305.554 28.6399 306.473 28.6399C307.259 28.6399 307.956 28.5167 308.562 28.2704C309.168 28.0146 309.661 27.6594 310.04 27.2047C310.419 26.7405 310.665 26.191 310.779 25.5563H312.129Z" fill="#E3C5B6" style="fill:#E3C5B6;fill:color(display-p3 0.8902 0.7725 0.7137);fill-opacity:1;"/>
<path d="M313.782 29.663V21.6628H315.075V29.0662L314.578 28.9951L320.702 21.6628H322.393V29.663H321.1V22.1886L321.611 22.2738L315.444 29.663H313.782Z" fill="#E3C5B6" style="fill:#E3C5B6;fill:color(display-p3 0.8902 0.7725 0.7137);fill-opacity:1;"/>
<path d="M333.02 26.6221C332.916 27.2568 332.655 27.8157 332.238 28.2988C331.831 28.782 331.31 29.1609 330.675 29.4356C330.041 29.7104 329.34 29.8477 328.572 29.8477C327.682 29.8477 326.896 29.6725 326.213 29.322C325.531 28.962 324.996 28.4694 324.608 27.8441C324.229 27.2094 324.039 26.48 324.039 25.6558C324.039 24.8316 324.229 24.1069 324.608 23.4817C324.996 22.847 325.531 22.3544 326.213 22.0039C326.896 21.6533 327.682 21.4781 328.572 21.4781C329.34 21.4781 330.041 21.6154 330.675 21.8902C331.31 22.1554 331.831 22.5296 332.238 23.0128C332.655 23.4959 332.916 24.0596 333.02 24.7037H331.67C331.528 24.0406 331.173 23.5196 330.604 23.1406C330.045 22.7522 329.368 22.558 328.572 22.558C327.928 22.558 327.364 22.6859 326.881 22.9417C326.408 23.1975 326.038 23.5575 325.773 24.0217C325.508 24.4764 325.375 25.0211 325.375 25.6558C325.375 26.2905 325.508 26.84 325.773 27.3042C326.038 27.7683 326.408 28.1283 326.881 28.3841C327.364 28.6304 327.928 28.7536 328.572 28.7536C329.378 28.7536 330.06 28.5594 330.619 28.171C331.187 27.7826 331.537 27.2663 331.67 26.6221H333.02Z" fill="#E3C5B6" style="fill:#E3C5B6;fill:color(display-p3 0.8902 0.7725 0.7137);fill-opacity:1;"/>
<path d="M336.767 22.1033H338.074V29.663H336.767V22.1033ZM333.3 21.6628H341.541V22.7286H333.3V21.6628Z" fill="#E3C5B6" style="fill:#E3C5B6;fill:color(display-p3 0.8902 0.7725 0.7137);fill-opacity:1;"/>
<path d="M346.561 29.8477C345.642 29.8477 344.827 29.6725 344.117 29.322C343.416 28.962 342.861 28.4694 342.454 27.8441C342.056 27.2094 341.857 26.48 341.857 25.6558C341.857 24.8222 342.047 24.0927 342.426 23.4675C342.805 22.8422 343.33 22.3544 344.003 22.0039C344.676 21.6533 345.448 21.4781 346.319 21.4781C347.181 21.4781 347.934 21.6675 348.579 22.0465C349.223 22.4254 349.72 22.9607 350.071 23.6522C350.431 24.3343 350.611 25.13 350.611 26.0395H342.852V25.0021H350.056L349.289 25.4711C349.261 24.8743 349.118 24.358 348.863 23.9222C348.607 23.4864 348.261 23.1501 347.825 22.9133C347.39 22.6765 346.883 22.558 346.305 22.558C345.68 22.558 345.135 22.6859 344.671 22.9417C344.207 23.188 343.842 23.5385 343.577 23.9932C343.321 24.448 343.193 24.9832 343.193 25.599C343.193 26.2431 343.34 26.8021 343.633 27.2757C343.927 27.7494 344.339 28.1141 344.87 28.3699C345.4 28.6257 346.025 28.7536 346.745 28.7536C347.399 28.7536 348.039 28.6446 348.664 28.4267C349.298 28.2088 349.867 27.9104 350.369 27.5315V28.5546C349.876 28.9525 349.289 29.2699 348.607 29.5067C347.925 29.734 347.243 29.8477 346.561 29.8477Z" fill="#E3C5B6" style="fill:#E3C5B6;fill:color(display-p3 0.8902 0.7725 0.7137);fill-opacity:1;"/>
<path d="M352.235 29.663V21.6628H354.167L357.975 29.123H357.293L361.087 21.6628H363.02V29.663H361.784V22.0323H362.224L358.274 29.663H356.981L353.03 22.0465H353.471V29.663H352.235Z" fill="#E3C5B6" style="fill:#E3C5B6;fill:color(display-p3 0.8902 0.7725 0.7137);fill-opacity:1;"/>
<path d="M373.893 21.6628H375.2V29.663H373.893V21.6628ZM365.154 29.663V21.6628H366.461V29.2509L365.935 28.6257H369.673C370.241 28.6257 370.691 28.4836 371.023 28.1994C371.354 27.9057 371.52 27.5126 371.52 27.02C371.52 26.5179 371.354 26.1247 371.023 25.8405C370.691 25.5469 370.241 25.4 369.673 25.4H366.035V24.3911H369.786C370.402 24.3911 370.937 24.5001 371.392 24.7179C371.856 24.9358 372.216 25.2437 372.472 25.6416C372.728 26.0395 372.856 26.4989 372.856 27.02C372.856 27.5505 372.728 28.0146 372.472 28.4125C372.216 28.8104 371.856 29.1183 371.392 29.3362C370.937 29.5541 370.402 29.663 369.786 29.663H365.154Z" fill="#E3C5B6" style="fill:#E3C5B6;fill:color(display-p3 0.8902 0.7725 0.7137);fill-opacity:1;"/>
<path d="M196.245 46.7149V38.7147H197.538V46.1181L197.04 46.047L203.165 38.7147H204.856V46.7149H203.563V39.2405L204.074 39.3257L197.907 46.7149H196.245Z" fill="#E3C5B6" style="fill:#E3C5B6;fill:color(display-p3 0.8902 0.7725 0.7137);fill-opacity:1;"/>
<path d="M214.108 36.6969H215.444V46.7149H214.108V36.6969ZM209.533 36.0575H220.019V37.2369H209.533V36.0575Z" fill="#E3C5B6" style="fill:#E3C5B6;fill:color(display-p3 0.8902 0.7725 0.7137);fill-opacity:1;"/>
<path d="M222.821 46.8996C221.902 46.8996 221.087 46.7244 220.377 46.3739C219.675 46.0139 219.121 45.5213 218.714 44.896C218.316 44.2613 218.117 43.5319 218.117 42.7077C218.117 41.8741 218.307 41.1446 218.686 40.5194C219.064 39.8941 219.59 39.4063 220.263 39.0558C220.935 38.7052 221.708 38.53 222.579 38.53C223.441 38.53 224.194 38.7195 224.838 39.0984C225.483 39.4773 225.98 40.0126 226.33 40.7041C226.69 41.3862 226.87 42.1819 226.87 43.0914H219.112V42.054H226.316L225.549 42.523C225.521 41.9262 225.378 41.4099 225.123 40.9741C224.867 40.5383 224.521 40.202 224.085 39.9652C223.65 39.7284 223.143 39.6099 222.565 39.6099C221.94 39.6099 221.395 39.7378 220.931 39.9936C220.467 40.2399 220.102 40.5904 219.837 41.0451C219.581 41.4999 219.453 42.0351 219.453 42.6509C219.453 43.295 219.6 43.854 219.893 44.3276C220.187 44.8013 220.599 45.166 221.13 45.4218C221.66 45.6776 222.285 45.8055 223.005 45.8055C223.659 45.8055 224.298 45.6965 224.924 45.4786C225.558 45.2607 226.127 44.9623 226.629 44.5834V45.6065C226.136 46.0044 225.549 46.3218 224.867 46.5586C224.185 46.7859 223.503 46.8996 222.821 46.8996Z" fill="#E3C5B6" style="fill:#E3C5B6;fill:color(display-p3 0.8902 0.7725 0.7137);fill-opacity:1;"/>
<path d="M227.137 46.7149L231.073 42.0967L231.059 43.0487L227.364 38.7147H228.913L231.912 42.2104H231.144L234.157 38.7147H235.649L231.912 43.063L231.883 42.0398L235.876 46.7149H234.356L231.087 42.9209H231.869L228.615 46.7149H227.137Z" fill="#E3C5B6" style="fill:#E3C5B6;fill:color(display-p3 0.8902 0.7725 0.7137);fill-opacity:1;"/>
<path d="M236.918 38.7147H238.211V46.7149H236.918V38.7147ZM243.795 38.7147H245.103V46.7149H243.795V38.7147ZM237.642 42.1393H244.406V43.2051H237.642V42.1393Z" fill="#E3C5B6" style="fill:#E3C5B6;fill:color(display-p3 0.8902 0.7725 0.7137);fill-opacity:1;"/>
<path d="M251.477 46.8996C250.54 46.8996 249.711 46.7244 248.991 46.3739C248.28 46.0234 247.726 45.5307 247.328 44.896C246.93 44.2613 246.731 43.5319 246.731 42.7077C246.731 41.8741 246.93 41.1446 247.328 40.5194C247.726 39.8941 248.28 39.4063 248.991 39.0558C249.711 38.7052 250.54 38.53 251.477 38.53C252.425 38.53 253.254 38.7052 253.964 39.0558C254.675 39.4063 255.229 39.8941 255.627 40.5194C256.034 41.1446 256.238 41.8741 256.238 42.7077C256.238 43.5319 256.034 44.2613 255.627 44.896C255.229 45.5307 254.675 46.0234 253.964 46.3739C253.254 46.7244 252.425 46.8996 251.477 46.8996ZM251.477 45.8055C252.178 45.8055 252.785 45.6823 253.296 45.436C253.808 45.1802 254.201 44.8202 254.476 44.3561C254.76 43.8919 254.902 43.3424 254.902 42.7077C254.902 42.0825 254.76 41.5378 254.476 41.0736C254.201 40.6094 253.808 40.2494 253.296 39.9936C252.785 39.7378 252.178 39.6099 251.477 39.6099C250.786 39.6099 250.18 39.7378 249.658 39.9936C249.147 40.2494 248.754 40.6094 248.479 41.0736C248.204 41.5378 248.067 42.0825 248.067 42.7077C248.067 43.3424 248.204 43.8919 248.479 44.3561C248.754 44.8202 249.147 45.1802 249.658 45.436C250.18 45.6823 250.786 45.8055 251.477 45.8055Z" fill="#E3C5B6" style="fill:#E3C5B6;fill:color(display-p3 0.8902 0.7725 0.7137);fill-opacity:1;"/>
<path d="M258.932 38.7147H266.406V46.7149H265.099V39.1694L265.696 39.7662H259.614L260.168 39.3115C260.225 39.9083 260.267 40.4957 260.296 41.0736C260.334 41.642 260.353 42.1488 260.353 42.594C260.353 44.0813 260.154 45.166 259.756 45.8481C259.358 46.5207 258.723 46.857 257.852 46.857C257.624 46.857 257.402 46.8286 257.184 46.7717C256.975 46.7244 256.777 46.6486 256.587 46.5444V45.5071C256.758 45.5734 256.923 45.6302 257.084 45.6776C257.255 45.7155 257.416 45.7344 257.568 45.7344C258.117 45.7344 258.515 45.4739 258.761 44.9529C259.017 44.4318 259.145 43.584 259.145 42.4093C259.145 41.9262 259.126 41.372 259.088 40.7467C259.06 40.112 259.007 39.4347 258.932 38.7147Z" fill="#E3C5B6" style="fill:#E3C5B6;fill:color(display-p3 0.8902 0.7725 0.7137);fill-opacity:1;"/>
<path d="M272.792 46.8996C271.854 46.8996 271.025 46.7244 270.306 46.3739C269.595 46.0234 269.041 45.5307 268.643 44.896C268.245 44.2613 268.046 43.5319 268.046 42.7077C268.046 41.8741 268.245 41.1446 268.643 40.5194C269.041 39.8941 269.595 39.4063 270.306 39.0558C271.025 38.7052 271.854 38.53 272.792 38.53C273.74 38.53 274.568 38.7052 275.279 39.0558C275.989 39.4063 276.544 39.8941 276.942 40.5194C277.349 41.1446 277.553 41.8741 277.553 42.7077C277.553 43.5319 277.349 44.2613 276.942 44.896C276.544 45.5307 275.989 46.0234 275.279 46.3739C274.568 46.7244 273.74 46.8996 272.792 46.8996ZM272.792 45.8055C273.493 45.8055 274.1 45.6823 274.611 45.436C275.123 45.1802 275.516 44.8202 275.791 44.3561C276.075 43.8919 276.217 43.3424 276.217 42.7077C276.217 42.0825 276.075 41.5378 275.791 41.0736C275.516 40.6094 275.123 40.2494 274.611 39.9936C274.1 39.7378 273.493 39.6099 272.792 39.6099C272.101 39.6099 271.494 39.7378 270.973 39.9936C270.462 40.2494 270.069 40.6094 269.794 41.0736C269.519 41.5378 269.382 42.0825 269.382 42.7077C269.382 43.3424 269.519 43.8919 269.794 44.3561C270.069 44.8202 270.462 45.1802 270.973 45.436C271.494 45.6823 272.101 45.8055 272.792 45.8055Z" fill="#E3C5B6" style="fill:#E3C5B6;fill:color(display-p3 0.8902 0.7725 0.7137);fill-opacity:1;"/>
<path d="M285.183 38.7147V39.7805H279.883L280.494 39.1836V46.7149H279.187V38.7147H285.183Z" fill="#E3C5B6" style="fill:#E3C5B6;fill:color(display-p3 0.8902 0.7725 0.7137);fill-opacity:1;"/>
<path d="M286.417 46.7149V38.7147H287.71V46.1181L287.212 46.047L293.337 38.7147H295.028V46.7149H293.735V39.2405L294.246 39.3257L288.079 46.7149H286.417Z" fill="#E3C5B6" style="fill:#E3C5B6;fill:color(display-p3 0.8902 0.7725 0.7137);fill-opacity:1;"/>
<path d="M297.157 46.7149V38.7147H298.45V46.1181L297.953 46.047L304.077 38.7147H305.768V46.7149H304.475V39.2405L304.987 39.3257L298.82 46.7149H297.157Z" fill="#E3C5B6" style="fill:#E3C5B6;fill:color(display-p3 0.8902 0.7725 0.7137);fill-opacity:1;"/>
<path d="M68.7433 18.3945V47.101H65.2985V19.2366L66.7147 19.2749L52.2084 40.8022H48.3808L33.8745 19.3131L35.2907 19.2749V47.101H31.8459V18.3945H37.281L51.4429 39.5774H49.1846L63.3082 18.3945H68.7433Z" fill="#E3C5B6" style="fill:#E3C5B6;fill:color(display-p3 0.8902 0.7725 0.7137);fill-opacity:1;"/>
<path d="M146.953 20.1169H150.551V47.101H146.953V20.1169ZM134.628 18.3945H162.875V21.5714H134.628V18.3945Z" fill="#E3C5B6" style="fill:#E3C5B6;fill:color(display-p3 0.8902 0.7725 0.7137);fill-opacity:1;"/>
<path d="M86.7537 47.1011C84.5698 47.1011 82.6397 46.6997 80.9632 45.8969C79.3088 45.094 78.0183 43.9657 77.0919 42.5119C76.1654 41.0581 75.7021 39.3874 75.7021 37.4996C75.7021 35.5902 76.1654 33.9194 77.0919 32.4873C78.0183 31.0552 79.3088 29.9378 80.9632 29.1349C82.6397 28.3321 84.5698 27.9307 86.7537 27.9307C88.9596 27.9307 90.8897 28.3321 92.5442 29.1349C94.1986 29.9378 95.489 31.0552 96.4155 32.4873C97.364 33.9194 97.8383 35.5902 97.8383 37.4996C97.8383 39.3874 97.364 41.0581 96.4155 42.5119C95.489 43.9657 94.1986 45.094 92.5442 45.8969C90.8897 46.6997 88.9596 47.1011 86.7537 47.1011ZM86.7537 44.595C88.3861 44.595 89.7978 44.3129 90.989 43.7487C92.1802 43.1629 93.0956 42.3383 93.7353 41.2751C94.3971 40.2119 94.728 38.9534 94.728 37.4996C94.728 36.0675 94.3971 34.8199 93.7353 33.7567C93.0956 32.6934 92.1802 31.8689 90.989 31.2831C89.7978 30.6972 88.3861 30.4043 86.7537 30.4043C85.1434 30.4043 83.7316 30.6972 82.5184 31.2831C81.3272 31.8689 80.4117 32.6934 79.772 33.7567C79.1323 34.8199 78.8125 36.0675 78.8125 37.4996C78.8125 38.9534 79.1323 40.2119 79.772 41.2751C80.4117 42.3383 81.3272 43.1629 82.5184 43.7487C83.7316 44.3129 85.1434 44.595 86.7537 44.595Z" fill="#E3C5B6" style="fill:#E3C5B6;fill:color(display-p3 0.8902 0.7725 0.7137);fill-opacity:1;"/>
<path d="M127.008 19.8C124.775 18.8631 122.212 18.3945 119.322 18.3945C116.063 18.3946 113.198 18.9988 110.728 20.2069C108.284 21.4151 106.379 23.0921 105.012 25.2372C103.646 27.3821 102.963 29.8847 102.963 32.7446C102.963 35.5801 103.646 38.0835 105.012 40.2533C106.379 42.3984 108.284 44.0753 110.728 45.2835C113.198 46.4917 116.063 47.0946 119.322 47.0946C122.212 47.0946 124.775 46.6261 127.008 45.6892C129.268 44.7522 131.095 43.4453 132.487 41.7686L129.809 39.3922C129.615 39.6766 129.406 39.9521 129.177 40.2153C128.125 41.3989 126.759 42.3238 125.077 42.9896C123.395 43.6306 121.463 43.9514 119.282 43.9514C116.733 43.9514 114.512 43.4949 112.62 42.5826C110.755 41.6456 109.31 40.3386 108.285 38.662C107.26 36.9854 106.747 35.0129 106.747 32.7446C106.747 30.4516 107.26 28.4671 108.285 26.7905C109.31 25.1139 110.755 23.8189 112.62 22.9066C114.512 21.9943 116.733 21.5378 119.282 21.5378C121.463 21.5378 123.395 21.8706 125.077 22.5362C126.759 23.1773 128.125 24.1024 129.177 25.3104C129.318 25.4701 129.453 25.6348 129.581 25.8025L132.487 23.7205C131.095 22.0439 129.268 20.7369 127.008 19.8Z" fill="#E3C5B6" style="fill:#E3C5B6;fill:color(display-p3 0.8902 0.7725 0.7137);fill-opacity:1;"/>
<path d="M3.54797 15.7792L4.82823 16.2324C3.04112 21.2624 2.37407 26.623 2.87471 31.9374C3.37578 37.2523 5.03227 42.3958 7.72802 47.0036C10.4238 51.6111 14.0942 55.575 18.4816 58.616C22.332 61.2844 26.654 63.1862 31.21 64.2247V66.9999C26.0953 65.9182 21.2412 63.8312 16.9363 60.8478C12.2236 57.5815 8.28051 53.3231 5.38486 48.374C2.48975 43.4253 0.712029 37.9025 0.173717 32.1945C-0.36425 26.4859 0.350733 20.7262 2.27037 15.3232L3.54797 15.7792Z" fill="white" style="fill:white;fill-opacity:1;"/>
<path d="M3.54797 15.7792L4.82823 16.2324C3.04112 21.2624 2.37407 26.623 2.87471 31.9374C3.37578 37.2523 5.03227 42.3958 7.72802 47.0036C10.4238 51.6111 14.0942 55.575 18.4816 58.616C22.332 61.2844 26.654 63.1862 31.21 64.2247V66.9999C26.0953 65.9182 21.2412 63.8312 16.9363 60.8478C12.2236 57.5815 8.28051 53.3231 5.38486 48.374C2.48975 43.4253 0.712029 37.9025 0.173717 32.1945C-0.36425 26.4859 0.350733 20.7262 2.27037 15.3232L3.54797 15.7792Z" fill="url(#paint0_linear_2521_630)" style=""/>
<path d="M3.54797 15.7792L4.82823 16.2324C3.04112 21.2624 2.37407 26.623 2.87471 31.9374C3.37578 37.2523 5.03227 42.3958 7.72802 47.0036C10.4238 51.6111 14.0942 55.575 18.4816 58.616C22.332 61.2844 26.654 63.1862 31.21 64.2247V66.9999C26.0953 65.9182 21.2412 63.8312 16.9363 60.8478C12.2236 57.5815 8.28051 53.3231 5.38486 48.374C2.48975 43.4253 0.712029 37.9025 0.173717 32.1945C-0.36425 26.4859 0.350733 20.7262 2.27037 15.3232L3.54797 15.7792Z" fill="#9B6858" style="fill:#9B6858;fill:color(display-p3 0.6078 0.4078 0.3451);fill-opacity:1;"/>
<path d="M20.5259 1.92437L21.3105 3.02968C16.9403 6.12591 13.4411 10.2977 11.1479 15.1378C8.85511 19.9781 7.84672 25.3275 8.219 30.6705C8.59152 36.0133 10.3317 41.1712 13.2737 45.6465C16.2163 50.1219 20.261 53.7678 25.0187 56.2278C26.9985 57.2514 29.0758 58.0499 31.2106 58.6267V61.431C28.641 60.7957 26.1434 59.8628 23.7729 58.6373C18.6017 55.9634 14.2058 52.003 11.0075 47.1388C7.8092 42.2741 5.91499 36.6665 5.51005 30.8587C5.1055 25.0512 6.20121 19.2353 8.69346 13.9741C11.1858 8.71359 14.9916 4.18176 19.7413 0.816406L20.5259 1.92437Z" fill="white" style="fill:white;fill-opacity:1;"/>
<path d="M20.5259 1.92437L21.3105 3.02968C16.9403 6.12591 13.4411 10.2977 11.1479 15.1378C8.85511 19.9781 7.84672 25.3275 8.219 30.6705C8.59152 36.0133 10.3317 41.1712 13.2737 45.6465C16.2163 50.1219 20.261 53.7678 25.0187 56.2278C26.9985 57.2514 29.0758 58.0499 31.2106 58.6267V61.431C28.641 60.7957 26.1434 59.8628 23.7729 58.6373C18.6017 55.9634 14.2058 52.003 11.0075 47.1388C7.8092 42.2741 5.91499 36.6665 5.51005 30.8587C5.1055 25.0512 6.20121 19.2353 8.69346 13.9741C11.1858 8.71359 14.9916 4.18176 19.7413 0.816406L20.5259 1.92437Z" fill="url(#paint1_linear_2521_630)" style=""/>
<path d="M20.5259 1.92437L21.3105 3.02968C16.9403 6.12591 13.4411 10.2977 11.1479 15.1378C8.85511 19.9781 7.84672 25.3275 8.219 30.6705C8.59152 36.0133 10.3317 41.1712 13.2737 45.6465C16.2163 50.1219 20.261 53.7678 25.0187 56.2278C26.9985 57.2514 29.0758 58.0499 31.2106 58.6267V61.431C28.641 60.7957 26.1434 59.8628 23.7729 58.6373C18.6017 55.9634 14.2058 52.003 11.0075 47.1388C7.8092 42.2741 5.91499 36.6665 5.51005 30.8587C5.1055 25.0512 6.20121 19.2353 8.69346 13.9741C11.1858 8.71359 14.9916 4.18176 19.7413 0.816406L20.5259 1.92437Z" fill="url(#paint2_linear_2521_630)" style=""/>
<path d="M23.0432 5.12847C28.4223 1.37477 34.9344 -0.409046 41.4757 0.0790151C48.0167 0.567673 54.1918 3.29758 58.9539 7.80825L57.0879 9.78032C52.7792 5.69878 47.1926 3.22749 41.2742 2.78531C35.3558 2.34361 29.4634 3.95878 24.5964 7.355C19.73 10.7518 16.1827 15.7251 14.5558 21.4325C12.9294 27.1404 13.324 33.2359 15.6691 38.6881C18.0146 44.1403 22.17 48.6161 27.4326 51.3608C28.6531 51.9972 29.9176 52.526 31.2098 52.9565V55.8006C29.4816 55.285 27.7942 54.6113 26.1762 53.7675C20.36 50.7341 15.7672 45.7874 13.1749 39.7616C10.5828 33.7353 10.1497 26.9967 11.9476 20.6877C13.7458 14.3796 17.6644 8.88269 23.0432 5.12847Z" fill="#E3C5B6" style="fill:#E3C5B6;fill:color(display-p3 0.8902 0.7725 0.7137);fill-opacity:1;"/>
<line x1="180.23" y1="14.0704" x2="180.23" y2="52.9304" stroke="url(#paint3_linear_2521_630)" style="" stroke-width="1.34" stroke-linecap="round"/>
<defs>
<linearGradient id="paint0_linear_2521_630" x1="15.605" y1="15.3232" x2="15.605" y2="66.9999" gradientUnits="userSpaceOnUse">
<stop stop-color="#FFE4BB" style="stop-color:#FFE4BB;stop-color:color(display-p3 1.0000 0.8928 0.7321);stop-opacity:1;"/>
<stop offset="0.259615" stop-color="#B09680" style="stop-color:#B09680;stop-color:color(display-p3 0.6893 0.5867 0.5012);stop-opacity:1;"/>
<stop offset="0.610577" stop-color="#624946" style="stop-color:#624946;stop-color:color(display-p3 0.3843 0.2863 0.2745);stop-opacity:1;"/>
<stop offset="0.75" stop-color="#473638" style="stop-color:#473638;stop-color:color(display-p3 0.2778 0.2102 0.2212);stop-opacity:1;"/>
<stop offset="1" stop-color="#2A212A" style="stop-color:#2A212A;stop-color:color(display-p3 0.1647 0.1294 0.1647);stop-opacity:1;"/>
</linearGradient>
<linearGradient id="paint1_linear_2521_630" x1="18.3193" y1="0.816406" x2="18.3193" y2="61.431" gradientUnits="userSpaceOnUse">
<stop stop-color="#E8D2A8" style="stop-color:#E8D2A8;stop-color:color(display-p3 0.9098 0.8235 0.6588);stop-opacity:1;"/>
<stop offset="1" stop-color="#E8BB88" style="stop-color:#E8BB88;stop-color:color(display-p3 0.9098 0.7333 0.5333);stop-opacity:1;"/>
</linearGradient>
<linearGradient id="paint2_linear_2521_630" x1="18.3193" y1="0.816406" x2="18.3193" y2="61.431" gradientUnits="userSpaceOnUse">
<stop stop-color="#BA9C8C" style="stop-color:#BA9C8C;stop-color:color(display-p3 0.7294 0.6118 0.5490);stop-opacity:1;"/>
<stop offset="1" stop-color="#A47764" style="stop-color:#A47764;stop-color:color(display-p3 0.6431 0.4667 0.3922);stop-opacity:1;"/>
</linearGradient>
<linearGradient id="paint3_linear_2521_630" x1="179.06" y1="53.6004" x2="177.043" y2="10.4563" gradientUnits="userSpaceOnUse">
<stop offset="0.00961538" stop-color="#E8D2A8" stop-opacity="0" style="stop-color:none;stop-opacity:0;"/>
<stop offset="0.360577" stop-color="#E8CA9D" style="stop-color:#E8CA9D;stop-color:color(display-p3 0.9098 0.7916 0.6144);stop-opacity:1;"/>
<stop offset="0.8125" stop-color="#E8BB88" style="stop-color:#E8BB88;stop-color:color(display-p3 0.9098 0.7333 0.5333);stop-opacity:1;"/>
<stop offset="0.942308" stop-color="#E8BB88" stop-opacity="0" style="stop-color:none;stop-opacity:0;"/>
</linearGradient>
</defs>
</svg>
