<svg width="40" height="40" viewBox="0 0 40 40" fill="none" xmlns="http://www.w3.org/2000/svg">
<g clip-path="url(#clip0_3371_1966)">
<circle cx="19.9997" cy="20.0002" r="16.6667" fill="#F0DDD8" style="fill:#F0DDD8;fill:color(display-p3 0.9412 0.8667 0.8471);fill-opacity:1;"/>
<path d="M19.9997 3.3335C10.8163 3.3335 3.33301 10.8168 3.33301 20.0002C3.33301 29.1835 10.8163 36.6668 19.9997 36.6668C29.183 36.6668 36.6663 29.1835 36.6663 20.0002C36.6663 10.8168 29.183 3.3335 19.9997 3.3335ZM27.9663 16.1668L18.5163 25.6168C18.283 25.8502 17.9663 25.9835 17.633 25.9835C17.2997 25.9835 16.983 25.8502 16.7497 25.6168L12.033 20.9002C11.5497 20.4168 11.5497 19.6168 12.033 19.1335C12.5163 18.6502 13.3163 18.6502 13.7997 19.1335L17.633 22.9668L26.1997 14.4002C26.683 13.9168 27.483 13.9168 27.9663 14.4002C28.4497 14.8835 28.4497 15.6668 27.9663 16.1668Z" fill="#038362" style="fill:#038362;fill:color(display-p3 0.0118 0.5137 0.3843);fill-opacity:1;"/>
</g>
<defs>
<clipPath id="clip0_3371_1966">
<rect width="40" height="40" fill="white" style="fill:white;fill-opacity:1;"/>
</clipPath>
</defs>
</svg>
