<svg width="2030" height="2038" viewBox="0 0 2030 2038" fill="none" xmlns="http://www.w3.org/2000/svg">
<g opacity="0.8">
<ellipse cx="951.576" cy="1010.08" rx="763.842" ry="755.048" fill="url(#paint0_linear_2153_862)" fill-opacity="0.12" style=""/>
<g filter="url(#filter0_f_2153_862)">
<path d="M1271.86 320.498C1158.02 266.591 1029.06 253.176 902.945 259.746C776.833 266.316 654.423 304.054 546.979 369.489C439.536 434.923 350.512 525.951 288.099 634.196C225.686 742.44 191.891 864.424 189.822 988.92C187.753 1113.42 203.877 1226.17 262.66 1336.37" stroke="url(#paint1_linear_2153_862)" style="" stroke-width="4" stroke-linecap="round"/>
</g>
<path d="M1269.89 338.185C1271.92 339.159 1274.26 339.288 1276.4 338.537C1278.54 337.786 1280.3 336.217 1281.29 334.181C1282.28 332.145 1282.43 329.81 1281.68 327.695C1280.94 325.58 1279.37 323.857 1277.33 322.902C1277.33 322.902 1277.33 322.902 1277.33 322.902C1248.7 309.501 1219.24 297.852 1189.17 288.042C1098.08 258.29 1001.33 245.598 905.489 250.916C778.604 257.788 653.487 296.573 545.379 362.979C437.713 428.822 347.198 521.898 285.138 630.863C222.898 739.614 189.261 863.902 188.063 988.27C187.035 1081.28 199.645 1174.93 231.401 1262.36C242.007 1291.6 254.717 1320.08 269.526 1347.42C269.526 1347.42 269.526 1347.42 269.526 1347.42C254.968 1319.94 242.53 1291.37 232.205 1262.07C201.294 1174.47 189.596 1080.98 191.465 988.298C193.791 864.5 228.391 741.383 291.039 634.182C353.515 526.763 443.878 435.599 550.666 371.603C657.9 307.053 781.41 270.044 906.091 264.415C1000.27 260.038 1095.02 273.365 1183.93 303.297C1213.29 313.167 1242.01 324.827 1269.89 338.185Z" fill="url(#paint2_linear_2153_862)" style=""/>
<g filter="url(#filter1_f_2153_862)">
<path d="M670.556 1710.29C669.564 1709.91 668.46 1709.95 667.486 1710.38C666.512 1710.82 665.749 1711.62 665.364 1712.61C664.98 1713.6 665.005 1714.7 665.436 1715.66C665.867 1716.62 666.667 1717.37 667.661 1717.74C667.661 1717.74 667.661 1717.74 667.661 1717.74C703.189 1731.02 739.717 1741.67 776.859 1749.58C864.106 1768.2 954.729 1771.58 1043.33 1759.43C1169.15 1742.34 1290.7 1693.55 1393.14 1618.57C1495.25 1544.15 1578.12 1443.9 1631.37 1330.01C1684.82 1216.31 1708.53 1089.32 1699.8 964.74C1691.29 839.652 1650.17 717.326 1581.95 612.454C1533.99 538.509 1472.79 473.176 1402.13 420.255C1372.02 397.69 1340.22 377.363 1307.06 359.483C1340.15 377.48 1371.87 397.914 1401.88 420.573C1472.32 473.716 1533.21 539.197 1580.82 613.181C1648.55 718.11 1689.09 840.267 1697.12 964.939C1705.38 1089.11 1681.3 1215.44 1627.74 1328.35C1574.37 1441.44 1491.65 1540.76 1390 1614.3C1288.03 1688.39 1167.26 1736.35 1042.49 1752.86C954.614 1764.6 864.848 1760.92 778.532 1742.18C741.786 1734.21 705.667 1723.54 670.556 1710.29Z" fill="url(#paint3_linear_2153_862)" style=""/>
</g>
<path d="M679.543 1706.83C677.685 1706.12 675.616 1706.18 673.79 1707C671.965 1707.82 670.531 1709.32 669.808 1711.19C669.084 1713.05 669.13 1715.12 669.938 1716.92C670.746 1718.73 672.249 1720.13 674.115 1720.82C674.115 1720.82 674.115 1720.82 674.115 1720.82C697.731 1729.55 721.78 1737.12 746.154 1743.49C844.195 1769.17 947.47 1775.16 1047.98 1760.95C1173.08 1743.44 1293.68 1694.4 1395.11 1619.52C1496.3 1545.13 1578.19 1445.23 1630.65 1332.04C1672.7 1241.69 1696.06 1143.08 1699.01 1044.08C1699.76 1019.24 1699.25 994.378 1697.48 969.615C1697.48 969.615 1697.48 969.615 1697.48 969.615C1699 994.396 1699.26 1019.25 1698.26 1044.06C1694.31 1142.93 1669.99 1241 1627.25 1330.49C1573.92 1442.59 1491.61 1540.88 1390.7 1613.53C1289.55 1686.66 1169.95 1733.84 1046.55 1749.86C947.39 1762.87 845.916 1755.94 749.971 1729.78C726.118 1723.29 702.607 1715.63 679.543 1706.83Z" fill="url(#paint4_linear_2153_862)" style=""/>
</g>
<defs>
<filter id="filter0_f_2153_862" x="172.641" y="241.216" width="1116.23" height="1112.15" filterUnits="userSpaceOnUse" color-interpolation-filters="sRGB">
<feFlood flood-opacity="0" result="BackgroundImageFix"/>
<feBlend mode="normal" in="SourceGraphic" in2="BackgroundImageFix" result="shape"/>
<feGaussianBlur stdDeviation="7.5" result="effect1_foregroundBlur_2153_862"/>
</filter>
<filter id="filter1_f_2153_862" x="645.093" y="339.483" width="1076.47" height="1447.1" filterUnits="userSpaceOnUse" color-interpolation-filters="sRGB">
<feFlood flood-opacity="0" result="BackgroundImageFix"/>
<feBlend mode="normal" in="SourceGraphic" in2="BackgroundImageFix" result="shape"/>
<feGaussianBlur stdDeviation="10" result="effect1_foregroundBlur_2153_862"/>
</filter>
<linearGradient id="paint0_linear_2153_862" x1="1528.31" y1="1647.03" x2="223.622" y2="927.163" gradientUnits="userSpaceOnUse">
<stop offset="0.203505" stop-color="#E3C5B6" stop-opacity="0" style="stop-color:none;stop-opacity:0;"/>
<stop offset="0.307692" stop-color="#E3C5B6" stop-opacity="0.32024" style="stop-color:#E3C5B6;stop-color:color(display-p3 0.8902 0.7725 0.7137);stop-opacity:0.32024;"/>
<stop offset="0.533654" stop-color="#E3C5B6" stop-opacity="0.9" style="stop-color:#E3C5B6;stop-color:color(display-p3 0.8902 0.7725 0.7137);stop-opacity:0.9;"/>
<stop offset="0.8125" stop-color="#E3C5B6" stop-opacity="0.37234" style="stop-color:#E3C5B6;stop-color:color(display-p3 0.8902 0.7725 0.7137);stop-opacity:0.37234;"/>
<stop offset="0.980769" stop-color="#E3C5B6" stop-opacity="0" style="stop-color:none;stop-opacity:0;"/>
</linearGradient>
<linearGradient id="paint1_linear_2153_862" x1="1268.67" y1="331.893" x2="631.564" y2="1677.31" gradientUnits="userSpaceOnUse">
<stop stop-color="#E8D2A8" style="stop-color:#E8D2A8;stop-color:color(display-p3 0.9098 0.8235 0.6588);stop-opacity:1;"/>
<stop offset="0.793269" stop-color="#E8BB88" style="stop-color:#E8BB88;stop-color:color(display-p3 0.9098 0.7333 0.5333);stop-opacity:1;"/>
<stop offset="1" stop-color="#E8BB88" stop-opacity="0" style="stop-color:none;stop-opacity:0;"/>
</linearGradient>
<linearGradient id="paint2_linear_2153_862" x1="1273.61" y1="330.543" x2="634.822" y2="1679.51" gradientUnits="userSpaceOnUse">
<stop stop-color="#E8D2A8" style="stop-color:#E8D2A8;stop-color:color(display-p3 0.9098 0.8235 0.6588);stop-opacity:1;"/>
<stop offset="0.793269" stop-color="#E8BB88" style="stop-color:#E8BB88;stop-color:color(display-p3 0.9098 0.7333 0.5333);stop-opacity:1;"/>
<stop offset="1" stop-color="#E8BB88" stop-opacity="0" style="stop-color:none;stop-opacity:0;"/>
</linearGradient>
<linearGradient id="paint3_linear_2153_862" x1="669.109" y1="1714.02" x2="1196.29" y2="310.234" gradientUnits="userSpaceOnUse">
<stop stop-color="#E8D2A8" style="stop-color:#E8D2A8;stop-color:color(display-p3 0.9098 0.8235 0.6588);stop-opacity:1;"/>
<stop offset="0.793269" stop-color="#E8BB88" style="stop-color:#E8BB88;stop-color:color(display-p3 0.9098 0.7333 0.5333);stop-opacity:1;"/>
<stop offset="1" stop-color="#E8BB88" stop-opacity="0" style="stop-color:none;stop-opacity:0;"/>
</linearGradient>
<linearGradient id="paint4_linear_2153_862" x1="676.829" y1="1713.82" x2="1200.19" y2="320.222" gradientUnits="userSpaceOnUse">
<stop stop-color="#E8D2A8" style="stop-color:#E8D2A8;stop-color:color(display-p3 0.9098 0.8235 0.6588);stop-opacity:1;"/>
<stop offset="0.793269" stop-color="#E8BB88" style="stop-color:#E8BB88;stop-color:color(display-p3 0.9098 0.7333 0.5333);stop-opacity:1;"/>
<stop offset="1" stop-color="#E8BB88" stop-opacity="0" style="stop-color:none;stop-opacity:0;"/>
</linearGradient>
</defs>
</svg>
