<svg width="40" height="40" viewBox="0 0 40 40" fill="none" xmlns="http://www.w3.org/2000/svg">
<g clip-path="url(#clip0_3248_17276)">
<circle cx="20.0007" cy="19.9997" r="16.6667" fill="#F0DDD8" style="fill:#F0DDD8;fill:color(display-p3 0.9412 0.8667 0.8471);fill-opacity:1;"/>
<path d="M20.0007 3.33301C10.8173 3.33301 3.33398 10.8163 3.33398 19.9997C3.33398 29.183 10.8173 36.6663 20.0007 36.6663C29.184 36.6663 36.6673 29.183 36.6673 19.9997C36.6673 10.8163 29.184 3.33301 20.0007 3.33301ZM27.9673 16.1663L18.5173 25.6163C18.284 25.8497 17.9673 25.983 17.634 25.983C17.3007 25.983 16.984 25.8497 16.7507 25.6163L12.034 20.8997C11.5507 20.4163 11.5507 19.6163 12.034 19.133C12.5173 18.6497 13.3173 18.6497 13.8007 19.133L17.634 22.9663L26.2007 14.3997C26.684 13.9163 27.484 13.9163 27.9673 14.3997C28.4507 14.883 28.4507 15.6663 27.9673 16.1663Z" fill="#FF6900" style="fill:#FF6900;fill:color(display-p3 1.0000 0.4118 0.0000);fill-opacity:1;"/>
</g>
<defs>
<clipPath id="clip0_3248_17276">
<rect width="40" height="40" fill="white" style="fill:white;fill-opacity:1;"/>
</clipPath>
</defs>
</svg>
